HIERARCHY
ROOT hips
{
  OFFSET 0 9.313263304106702 1.2146308026317778
  CHANNELS 6 Xposition Yposition Zposition Yrotation Xrotation Zrotation
  JOINT spine
  {
    OFFSET -6.402521e-31 0.5173342420023708 0
    CHANNELS 3 Yrotation Xrotation Zrotation
    JOINT chest
    {
      OFFSET 0 1.130544299341115 0
      CHANNELS 3 Yrotation Xrotation Zrotation
      JOINT upperChest
      {
        OFFSET 0 1.0863555061129995 0
        CHANNELS 3 Yrotation Xrotation Zrotation
        JOINT neck
        {
          OFFSET 0 1.3773706506454462 0
          CHANNELS 3 Yrotation Xrotation Zrotation
          JOINT head
          {
            OFFSET 0 0.7374408940073979 0
            CHANNELS 3 Yrotation Xrotation Zrotation
            JOINT leftEye
            {
              OFFSET 0.25066580148932727 0.6408406698778757 0.15963719178883284
              CHANNELS 3 Yrotation Xrotation Zrotation
              End Site
              {
                OFFSET 0.25066580148932727 0.6408406698778757 0.15963719178883284
              }
            }
            JOINT rightEye
            {
              OFFSET -0.25066576739704244 0.6408406384191823 0.15963727561643756
              CHANNELS 3 Yrotation Xrotation Zrotation
              End Site
              {
                OFFSET -0.25066576739704244 0.6408406384191823 0.15963727561643756
              }
            }
          }
        }
        JOINT leftShoulder
        {
          OFFSET 0.3761817444281191 1.0539491987447769 0
          CHANNELS 3 Yrotation Xrotation Zrotation
          JOINT leftUpperArm
          {
            OFFSET 0.8702844380000002 0 0
            CHANNELS 3 Yrotation Xrotation Zrotation
            JOINT leftLowerArm
            {
              OFFSET 2.198527310000323 0 0
              CHANNELS 3 Yrotation Xrotation Zrotation
              JOINT leftHand
              {
                OFFSET 2.146852313968281 0 0
                CHANNELS 3 Yrotation Xrotation Zrotation
                JOINT leftIndexProximal
                {
                  OFFSET 0.6585177834681599 0.07380250427007962 0.18382213159631788
                  CHANNELS 3 Yrotation Xrotation Zrotation
                  JOINT leftIndexIntermediate
                  {
                    OFFSET 0.3323021288626682 -0.009606893929485771 -0.012820872253340998
                    CHANNELS 3 Yrotation Xrotation Zrotation
                    JOINT leftIndexDistal
                    {
                      OFFSET 0.2045908926985518 -0.0071133989147997845 -0.006828784783599051
                      CHANNELS 3 Yrotation Xrotation Zrotation
                      End Site
                      {
                        OFFSET 0.2045908926985518 -0.0071133989147997845 -0.006828784783599051
                      }
                    }
                  }
                }
                JOINT leftLittleProximal
                {
                  OFFSET 0.6110054258835662 0.07380246363125398 -0.29175655876064077
                  CHANNELS 3 Yrotation Xrotation Zrotation
                  JOINT leftLittleIntermediate
                  {
                    OFFSET 0.3144281999999998 -2.5124724523095665e-9 1.8658118799974588e-7
                    CHANNELS 3 Yrotation Xrotation Zrotation
                    JOINT leftLittleDistal
                    {
                      OFFSET 0.18116185580251631 0.002815456192251098 0.0034826415518049436
                      CHANNELS 3 Yrotation Xrotation Zrotation
                      End Site
                      {
                        OFFSET 0.18116185580251631 0.002815456192251098 0.0034826415518049436
                      }
                    }
                  }
                }
                JOINT leftMiddleProximal
                {
                  OFFSET 0.6637478005691111 0.07380246480054087 0.02046981859247815
                  CHANNELS 3 Yrotation Xrotation Zrotation
                  JOINT leftMiddleIntermediate
                  {
                    OFFSET 0.3705733999999994 -2.9611069152224445e-9 9.35054791928458e-8
                    CHANNELS 3 Yrotation Xrotation Zrotation
                    JOINT leftMiddleDistal
                    {
                      OFFSET 0.22861063500000056 -1.82673876025774e-9 -1.6740782024515788e-7
                      CHANNELS 3 Yrotation Xrotation Zrotation
                      End Site
                      {
                        OFFSET 0.22861063500000056 -1.82673876025774e-9 -1.6740782024515788e-7
                      }
                    }
                  }
                }
                JOINT leftRingProximal
                {
                  OFFSET 0.6561845547265777 0.07380246406440083 -0.13588087571513918
                  CHANNELS 3 Yrotation Xrotation Zrotation
                  JOINT leftRingIntermediate
                  {
                    OFFSET 0.3437531000000005 -2.746796123886952e-9 1.4935781944558357e-7
                    CHANNELS 3 Yrotation Xrotation Zrotation
                    JOINT leftRingDistal
                    {
                      OFFSET 0.1983118991198174 -0.002467117924596085 -0.004538141969590015
                      CHANNELS 3 Yrotation Xrotation Zrotation
                      End Site
                      {
                        OFFSET 0.1983118991198174 -0.002467117924596085 -0.004538141969590015
                      }
                    }
                  }
                }
                JOINT leftThumbProximal
                {
                  OFFSET 0.09767004258864787 -0.14930060425447422 -0.07008212897521154
                  CHANNELS 3 Yrotation Xrotation Zrotation
                  JOINT leftThumbIntermediate
                  {
                    OFFSET 0.36682123028154767 -0.015768465060082004 0.28693641268151077
                    CHANNELS 3 Yrotation Xrotation Zrotation
                    JOINT leftThumbDistal
                    {
                      OFFSET 0.21091084272403915 -0.016756648201192714 0.1933767059105508
                      CHANNELS 3 Yrotation Xrotation Zrotation
                      End Site
                      {
                        OFFSET 0.21091084272403915 -0.016756648201192714 0.1933767059105508
                      }
                    }
                  }
                }
              }
            }
          }
        }
        JOINT rightShoulder
        {
          OFFSET -0.37618174442811925 1.0539491987447769 0
          CHANNELS 3 Yrotation Xrotation Zrotation
          JOINT rightUpperArm
          {
            OFFSET -0.870284438 0 0
            CHANNELS 3 Yrotation Xrotation Zrotation
            JOINT rightLowerArm
            {
              OFFSET -2.1985273100003235 0 0
              CHANNELS 3 Yrotation Xrotation Zrotation
              JOINT rightHand
              {
                OFFSET -2.1468523139682802 0 0
                CHANNELS 3 Yrotation Xrotation Zrotation
                JOINT rightIndexProximal
                {
                  OFFSET -0.6585177834681599 0.07380250427007962 0.18382213159631788
                  CHANNELS 3 Yrotation Xrotation Zrotation
                  JOINT rightIndexIntermediate
                  {
                    OFFSET -0.3323021288626682 -0.009606893929485771 -0.012820872253340998
                    CHANNELS 3 Yrotation Xrotation Zrotation
                    JOINT rightIndexDistal
                    {
                      OFFSET -0.2045908926985518 -0.0071133989147997845 -0.006828784783599051
                      CHANNELS 3 Yrotation Xrotation Zrotation
                      End Site
                      {
                        OFFSET -0.2045908926985518 -0.0071133989147997845 -0.006828784783599051
                      }
                    }
                  }
                }
                JOINT rightLittleProximal
                {
                  OFFSET -0.6110054258835662 0.07380246363125398 -0.29175655876064077
                  CHANNELS 3 Yrotation Xrotation Zrotation
                  JOINT rightLittleIntermediate
                  {
                    OFFSET -0.3144281999999998 -2.5124724523095665e-9 1.8658118799974588e-7
                    CHANNELS 3 Yrotation Xrotation Zrotation
                    JOINT rightLittleDistal
                    {
                      OFFSET -0.18116185580251631 0.002815456192251098 0.0034826415518049436
                      CHANNELS 3 Yrotation Xrotation Zrotation
                      End Site
                      {
                        OFFSET -0.18116185580251631 0.002815456192251098 0.0034826415518049436
                      }
                    }
                  }
                }
                JOINT rightMiddleProximal
                {
                  OFFSET -0.6637478005691111 0.07380246480054087 0.02046981859247815
                  CHANNELS 3 Yrotation Xrotation Zrotation
                  JOINT rightMiddleIntermediate
                  {
                    OFFSET -0.3705733999999994 -2.9611069152224445e-9 9.35054791928458e-8
                    CHANNELS 3 Yrotation Xrotation Zrotation
                    JOINT rightMiddleDistal
                    {
                      OFFSET -0.22861063500000056 -1.82673876025774e-9 -1.6740782024515788e-7
                      CHANNELS 3 Yrotation Xrotation Zrotation
                      End Site
                      {
                        OFFSET -0.22861063500000056 -1.82673876025774e-9 -1.6740782024515788e-7
                      }
                    }
                  }
                }
                JOINT rightRingProximal
                {
                  OFFSET -0.6561845547265777 0.07380246406440083 -0.13588087571513918
                  CHANNELS 3 Yrotation Xrotation Zrotation
                  JOINT rightRingIntermediate
                  {
                    OFFSET -0.3437531000000005 -2.746796123886952e-9 1.4935781944558357e-7
                    CHANNELS 3 Yrotation Xrotation Zrotation
                    JOINT rightRingDistal
                    {
                      OFFSET -0.1983118991198174 -0.002467117924596085 -0.004538141969590015
                      CHANNELS 3 Yrotation Xrotation Zrotation
                      End Site
                      {
                        OFFSET -0.1983118991198174 -0.002467117924596085 -0.004538141969590015
                      }
                    }
                  }
                }
                JOINT rightThumbProximal
                {
                  OFFSET -0.09767004258864787 -0.14930060425447422 -0.07008212897521154
                  CHANNELS 3 Yrotation Xrotation Zrotation
                  JOINT rightThumbIntermediate
                  {
                    OFFSET -0.36682123028154767 -0.015768465060082004 0.28693641268151077
                    CHANNELS 3 Yrotation Xrotation Zrotation
                    JOINT rightThumbDistal
                    {
                      OFFSET -0.21091084272403915 -0.016756648201192714 0.1933767059105508
                      CHANNELS 3 Yrotation Xrotation Zrotation
                      End Site
                      {
                        OFFSET -0.21091084272403915 -0.016756648201192714 0.1933767059105508
                      }
                    }
                  }
                }
              }
            }
          }
        }
      }
    }
  }
  JOINT leftUpperLeg
  {
    OFFSET 0.7715603 -0.3993844658041501 0
    CHANNELS 3 Yrotation Xrotation Zrotation
    JOINT leftLowerLeg
    {
      OFFSET 0 -3.529830000249343 0
      CHANNELS 3 Yrotation Xrotation Zrotation
      JOINT leftFoot
      {
        OFFSET 0 -4.154939295409685 0.004208579085223096
        CHANNELS 3 Yrotation Xrotation Zrotation
        JOINT leftToes
        {
          OFFSET 0 -0.6353414391261847 1.10414981190622
          CHANNELS 3 Yrotation Xrotation Zrotation
          End Site
          {
            OFFSET 0 -0.6015820691747853 1.10414981190622
          }
        }
      }
    }
  }
  JOINT rightUpperLeg
  {
    OFFSET -0.7715603 -0.3993844658041501 0
    CHANNELS 3 Yrotation Xrotation Zrotation
    JOINT rightLowerLeg
    {
      OFFSET 0 -3.529830000249343 0
      CHANNELS 3 Yrotation Xrotation Zrotation
      JOINT rightFoot
      {
        OFFSET 0 -4.154939295409685 0.004208579085223096
        CHANNELS 3 Yrotation Xrotation Zrotation
        JOINT rightToes
        {
          OFFSET 0 -0.6353414391261847 1.10414981190622
          CHANNELS 3 Yrotation Xrotation Zrotation
          End Site
          {
            OFFSET 0 -0.6015820691747853 1.10414981190622
          }
        }
      }
    }
  }
}
MOTION
Frames: 4
Frame Time: 0.03333333333333333
0.006290522658012129 8.373880386352537 1.360266854525012 2.045950330717893 -8.368899215650586 8.821650425242453 7.203448318024949 18.20171338582083 3.729984048610205 1.8362174509605722 4.782678722026929 -9.838917123453248 0 0 0 -3.30982708380563 -6.4216801969759825 -7.563121164397868 -29.22768974435629 -3.169764258570169 13.882302626998358 0 0 0 0 0 0 2.84823894991594 0.4536521374921602 -6.155536257148708 8.324099998780245 0.5248725875765339 -56.02069203932202 -1.4971216715949105 0.0000018546216369725507 -0.000004707483108049497 -8.436761871119225 56.822049993138684 1.2768988742365788 1.551390264979344 0.17626957131005236 -13.006264860259764 1.5886161962091516 0.18377669330022106 -13.180148675634742 1.5794226551317059 0.18444242673787276 -13.267098463961872 5.8647960385639815 1.2476721429545397 -13.689232284499248 -2.364603170820202 0.2695192981218144 -14.935124636191938 1.7188699516086168 0.27140487822750126 -14.512066720530576 1.2997675032946403 0.12323036801259231 -10.86361983358477 1.5670111328307785 0.17907182997288595 -13.076296911686427 1.6213961396942682 0.19245580276904503 -13.53977789706055 1.3519984734775599 0.13345822844264218 -11.26886849849087 1.6170000328701497 0.19188806678133125 -13.52264000468689 1.6748167693309808 0.20604622720004828 -14.015780625615056 15.648963142208753 -1.5697843144658399 7.524439390229945 18.464891587632422 4.27448813736736 2.8658249324490757 12.233271748273262 0.15714880258937208 3.5498086976147616 5.104947934168368 1.2177342578434314 2.8933902271449594 19.325105268765387 -15.492309835005042 52.35812300413694 23.526190842248496 2.715458353727489e-7 4.749319386440792e-8 29.05481476984005 47.01844060923807 -18.99743676749996 -0.42711963829667865 0.013054035746512316 3.352782483095867 -1.1601909224581544 0.10023560516959829 9.805922931325197 -1.5849044181967755 0.17978490788686347 13.031955509856616 -0.8079551988414441 0.04663471252778953 7.132553294468003 -1.547829051415427 0.15864199166557894 13.585809849935519 -2.0811063408306394 0.26968637280183944 16.8111189902459 -0.5042293088983572 0.017991322214122016 3.669276510347172 -1.0678058420752572 0.09114547114105107 9.600396707002243 -1.647549468949295 0.18756534708923978 13.333355963815608 -0.5726025261536205 0.023503266895024973 4.850562956103809 -1.358121458445257 0.1298161671971268 11.00294777081152 -1.793564714281612 0.23622700388787526 14.777104152375097 -15.636740936186523 -1.8539294683425076 -7.982129641090214 -19.051062334048623 4.959163652611574 -2.5539679280561756 -10.425172784974071 -0.5645422521341436 -3.0524010070404843 -1.088090732306989 -8.863355243919298 -10.431998964502224 9.063600507439082 38.011812534478835 1.5248800724703186 -0.5670932548031881 -21.3699141944512 2.4973444162856837 -7.645469103936515e-7 -0.2053656985169576 -9.157615802509745e-7 7.1984452880031276 -27.28400538412967 -18.07539271327621 -0.0864644965638463 56.47304113751944 9.707963020490302 -1.0952397402072755 -1.09789821935072 17.29906740947236 0.00000593798508790596 -21.388341333098023 -0.000004778777538680392
-0.017546803097833286 8.353535912253639 1.3307697756511176 0.8557415173829599 -9.625365625967566 9.723444056472898 6.656077909935737 20.054733160867833 2.4277843048251957 1.7155547636908466 5.399855069266879 -9.781273797171325 0 0 0 -3.545659725455109 -7.270267619136773 -7.639820610150125 -30.702343313715208 -3.3722377326861115 14.925082173410308 0 0 0 0 0 0 2.3660077497073657 0.5405194663570118 -6.70012862291543 5.405574742604925 0.35398929219957664 -56.27263288405676 -2.9905281020345127 0.000001163276424748428 0.000017420644428392227 -9.509183765438248 58.40949245194352 0.384459394071453 1.5804660210140051 0.18303608088832224 -13.253567221122292 1.6031402499868226 0.18720043694523875 -13.303803720079708 1.5866975953540592 0.1861372963503205 -13.328914403545115 5.8892337962474555 1.272995219343774 -13.935396714618495 -2.3502889530130555 0.2738259408892461 -15.058763221940994 1.7260277710825052 0.2734830401374825 -14.573884616061507 1.3235876532102786 0.12784710672702315 -11.064580049615307 1.5832577116165052 0.18284047234477782 -13.214421099749336 1.6303354456627526 0.19462174548505723 -13.615909796565203 1.3757781227856718 0.1382376000485526 -11.469836186805038 1.633220762027089 0.19580404208442087 -13.660761755294997 1.6837568115449226 0.20829843010090368 -14.09193007944119 15.648972288101595 -1.5697984070199738 7.524435156531652 18.464891587632422 4.27448813736736 2.8658249324490757 12.233271748273262 0.15714880258937208 3.5498086976147616 6.256128316982891 1.3828540757305074 1.864061220492324 21.198165901479012 -18.09651829090666 52.73779699173011 25.520614040580316 0.0000013700162448202996 0.0000033176991815507217 30.276530214454173 49.01363683856802 -19.306333596729225 -0.41365854459154894 0.012237458763646373 3.24222571521493 -1.1535693430983762 0.09910853553975746 9.750682956822269 -1.5816245085665983 0.1790245253458218 13.004303849544593 -0.7945679922956778 0.04509975375196585 7.022013488953585 -1.5412548261745034 0.15719961565272605 13.530535640632301 -2.077850041780716 0.2687628996869241 16.783519664698996 -0.49333046803689085 0.017210209337379566 3.5794358461592357 -1.0603830848601992 0.08994478375063471 9.538661342500063 -1.6435193587407864 0.18660872863947445 13.299341390640528 -0.5616863223674833 0.022608447007757333 4.760745058546985 -1.3507335232999165 0.12837638100970616 10.941189776225247 -1.789561368924839 0.23516316624300151 14.743115844963034 -15.636750083224547 -1.8539290412321145 -7.98214111285321 -19.051062334048623 4.959163652611574 -2.5539679280561756 -10.425172784974071 -0.5645422521341436 -3.0524010070404843 -1.922302588350344 -7.9575900146011085 -10.577023965731678 11.088642031019532 38.43434905067281 1.254104891716512 -0.6377040335356443 -21.596708507867245 2.51001740813051 1.737876291032282e-13 3.4546950861232165e-7 8.537736462515938e-7 4.606298798230848 -28.993377054683734 -20.41695502767365 12.075578798467575 56.68060609936897 18.345510456446604 -1.1382234164404927 0.6120808484140806 22.66018244355259 0.015596561818058342 -18.019120974771997 -1.1628522331658986
-0.036019838669083336 8.348610617897727 1.2955148406791348 -0.4261988899439643 -10.266471164020082 10.62567948502727 6.357245557743039 21.763391093513007 1.1811560707834234 1.6566967722632728 6.038732467283695 -10.43897412862134 0 0 0 -3.9891009434698232 -8.133903529779262 -7.649579211017637 -33.07998175105629 -3.516236211927747 16.257287096394496 0 0 0 0 0 0 1.7557795287957505 0.6235582078361365 -7.086308484555538 2.76518531571316 -0.5160210976497223 -55.92938879080304 -5.325909151108176 -0.000007112024786779864 -0.0000039775432642098785 -11.174953540148119 59.70794325269101 0.25176124559889373 1.5847846849574545 0.18405375761602558 -13.290320713338964 1.6053074662460036 0.18771618568904197 -13.322168262950958 1.5877622728273646 0.18641552130769526 -13.33811239402039 5.892872357394772 1.2767555289727053 -13.971975170284665 -2.3481834990656485 0.2744695868646608 -15.077150981913862 1.727083917234991 0.27380577025651803 -14.583063342270178 1.3271330232222651 0.12853283542358024 -11.094433681697778 1.5856564121958305 0.18340132445358617 -13.23497043739246 1.6316591127144238 0.19495427890175274 -13.627218664700976 1.3793259251991519 0.1389515303282794 -11.499685566970111 1.6356201053655712 0.19640087337955606 -13.681300361912973 1.6850720610756862 0.20864450420312403 -14.103231241666492 15.648975577841307 -1.5698068412001447 7.5244402369695935 18.464891587632422 4.27448813736736 2.8658249324490757 12.233271748273262 0.15714880258937208 3.5498086976147616 7.065193551007893 1.5387336290674425 0.5940809864472647 22.893699519055374 -20.900106122649582 53.09887458021772 28.42624758260066 -0.0000014957435204896776 0.000014701234146417704 30.188417889401233 49.723664148323955 -21.04829144214708 -0.273769332215902 0.005344709327790583 2.0928862168895637 -1.0844445872108743 0.08769732864791818 9.176095339063847 -1.5474882963291299 0.17123784652733667 12.71707018692549 -0.6552572272705247 0.030553995591482364 5.872739320062221 -1.4727102721560994 0.14268558734971024 12.956046592813994 -2.044151303048944 0.25922043714640114 16.49629915396574 -0.37973396239048357 0.010094315115487685 2.6456127175599544 -0.9830633105963242 0.07784628459274662 8.896746712806474 -1.601516936567589 0.17684093535506232 12.94562552743798 -0.4481833537329773 0.01437882734674898 3.8269231279702365 -1.2738558461558602 0.11387663069406581 10.299318861588196 -1.7478625004798944 0.2241883514359277 14.389429551721408 -15.636748438012564 -1.853927332790544 -7.982128795145615 -19.051062334048623 4.959163652611574 -2.5539679280561756 -10.425172784974071 -0.5645422521341436 -3.0524010070404843 -3.8970356542809337 -7.740125038001073 -10.98502562396197 9.754432761090147 38.2052748868095 -1.4371047268405188 3.136808856666314 -21.400812004309657 2.4209573498857075 -0.000002541793452565842 0.000006780410486804244 2.0769555915499614e-12 3.025097054486621 -30.425768588285038 -22.141835268711283 11.674623451154647 55.695336789765015 16.22478061012904 -1.4611309198087707 -1.3845444001179537 21.86567256339107 0.00000749850666697863 -10.78595442074149 -0.000005935312087991823
-0.051070258698680183 8.360322605479846 1.2581777596802806 -1.7090205799485452 -9.752903958064707 11.409639513951088 6.674734195256338 22.700571833671148 0.48894590939995575 1.7519389336257642 6.382744785214094 -12.576250015934457 0 0 0 -4.856291707528385 -8.806231089653254 -7.422863492982503 -37.101259687439175 -3.2581713492787525 18.010615001871013 0 0 0 0 0 0 0.8106672019572353 0.7040375446055496 -6.779003339320293 0.3719000233394454 -1.2063874151207827 -55.102870494647945 -10.673625870429609 -0.000020321969817706666 0.0000015357546948269885 -13.59622239487786 59.93099646892132 2.060993353320627 1.5304587842025617 0.1714963676756923 -12.828428002164362 1.5781667480345756 0.18132396258798128 -13.091231198805719 1.5742004852081406 0.18318609235209835 -13.222626911434002 5.847154997491461 1.2295241453709274 -13.512233724738577 -2.374900183662233 0.26644762706797726 -14.84625045980563 1.7137062336646032 0.26990083244717467 -14.467615009225037 1.282627438305458 0.1199914369872006 -10.719137238157193 1.555322589428013 0.17635293469717425 -12.976968451024248 1.614977782863894 0.19093179494064752 -13.485044114611219 1.3348908345106583 0.13005469082290239 -11.124385211758469 1.6053410595632116 0.18910061382195906 -13.423307132805755 1.6684092989750137 0.20446357416849814 -13.961051520297728 15.648983078864578 -1.5697964853080408 7.524436003271317 18.464891587632422 4.27448813736736 2.8658249324490757 12.233271748273262 0.15714880258937208 3.5498086976147616 6.8139309657693605 1.5301978475656068 -0.7963879793062918 23.63582305799225 -22.89382172344484 53.54899288737239 35.30858269964573 0.000010589018156552802 0.0000019603023599289744 28.630341330016023 48.51708864930914 -24.260238278356994 0.045134961367514215 0.00011994666425189275 -0.5243560460769984 -0.9267078007877257 0.06429878735268788 7.867699094620542 -1.4696014880485109 0.154134436887509 12.062976839312126 -0.3371012213832486 0.007888027249086113 3.255598129384731 -1.3161379590045121 0.11220260409935247 11.647776327823138 -1.9672397019723258 0.23809689091373742 15.842348142973268 -0.12073670118643393 0.0008076430847338928 0.5191293451787069 -0.8065699489258181 0.053546559788515795 7.434971763515285 -1.505640545076908 0.1555552548257146 12.14015319467649 -0.18931493022355225 0.002545137384985207 1.7004469645341058 -1.098193383785976 0.08407142126933694 8.837657926644582 -1.6526161117173574 0.20017469555802828 13.5840411904446 -15.636764165898553 -1.8539264785697591 -7.982129641090214 -19.051062334048623 4.959163652611574 -2.5539679280561756 -10.425172784974071 -0.5645422521341436 -3.0524010070404843 -5.470595033553453 -8.436730572180034 -11.339405525613948 8.792642309753449 37.22286447222935 -3.5438685111278247 6.517733874343184 -20.779115393307375 2.2913902619062245 1.4016435811307426e-11 -0.00004606117354574389 -6.403440255737943e-7 4.236980579247718 -31.303707672937364 -24.479164887940673 1.018585809997599 52.615095725275104 7.709170380956753 -1.3365121118840242 -2.006536363924219 18.644046297348023 -6.328005959981934e-7 -6.247992118875072 8.723207507078483e-7
